<svg xmlns="http://www.w3.org/2000/svg" viewBox="0 0 143.026 49.815"><defs><style>.cls-1{fill:#fff}</style></defs><g id="Footer_LOGO" data-name="Footer LOGO" transform="translate(0 -.015)"><path id="Path_1" d="M63.428 48.8a1.535 1.535 0 0 0-1.528 1.528 1.56 1.56 0 0 0 1.528 1.528 1.528 1.528 0 1 0 0-3.056z" class="cls-1" data-name="Path 1" transform="translate(-38.834 -30.606)"/><path id="Path_2" d="M166.307 29.153a7.707 7.707 0 0 0-2.683-1.789 10.179 10.179 0 0 0-6.968 0 7.134 7.134 0 0 0-2.683 1.751 7.387 7.387 0 0 0-1.677 2.72 10.7 10.7 0 0 0 0 7.043 7.758 7.758 0 0 0 4.36 4.509 9.212 9.212 0 0 0 3.465.633 9.368 9.368 0 0 0 3.5-.6 7.961 7.961 0 0 0 2.683-1.751 7.822 7.822 0 0 0 1.714-2.757 10.587 10.587 0 0 0 0-7.005 7.324 7.324 0 0 0-1.711-2.754zM163.214 39.4a3.674 3.674 0 0 1-3.056 1.453 3.57 3.57 0 0 1-2.2-.671 4.283 4.283 0 0 1-1.453-1.9 8.532 8.532 0 0 1-.522-2.907 7.23 7.23 0 0 1 .522-2.944 4.088 4.088 0 0 1 1.453-1.9 3.538 3.538 0 0 1 2.2-.633 3.627 3.627 0 0 1 3.056 1.453 6.461 6.461 0 0 1 1.155 4.024 6.386 6.386 0 0 1-1.155 4.025z" class="cls-1" data-name="Path 2" transform="translate(-95.172 -16.772)"/><path id="Path_3" d="M203.387 9.894a1.922 1.922 0 0 0-1.528.633 2.931 2.931 0 0 0-.559 1.938v18.371a2.89 2.89 0 0 0 .559 1.9 1.952 1.952 0 0 0 1.528.671 1.921 1.921 0 0 0 1.528-.633 2.745 2.745 0 0 0 .6-1.938V12.465a2.745 2.745 0 0 0-.6-1.938 2.05 2.05 0 0 0-1.528-.633z" class="cls-1" data-name="Path 3" transform="translate(-126.289 -6.195)"/><path id="Path_4" d="M356.193 30.689a6.376 6.376 0 0 0 .335-1.118 7.281 7.281 0 0 0 .186-.82 1.682 1.682 0 0 0-.261-.932 1.66 1.66 0 0 0-.671-.671 2.06 2.06 0 0 0-.932-.261 2.033 2.033 0 0 0-1.043.224 2.363 2.363 0 0 0-.708.894c-.261.6-.522 1.23-.745 1.863l-3.391 9.726-3.577-10.434a5.841 5.841 0 0 0-.82-1.677 1.644 1.644 0 0 0-1.379-.6 2.239 2.239 0 0 0-1.006.261 2.492 2.492 0 0 0-.783.745 1.637 1.637 0 0 0-.261 1.006 5.183 5.183 0 0 0 .484 1.64l5.217 13.154-.373.932a20.599 20.599 0 0 1-.745 1.6 2.371 2.371 0 0 1-.745.745 3.036 3.036 0 0 1-1.155.224 2.34 2.34 0 0 1-.708-.112 2.063 2.063 0 0 0-.671-.075 1.829 1.829 0 0 0-1.3.41 1.435 1.435 0 0 0-.447 1.118 1.539 1.539 0 0 0 .932 1.491 7.619 7.619 0 0 0 2.795.41 6.2 6.2 0 0 0 3.018-.6 4.65 4.65 0 0 0 1.826-1.677 15.4 15.4 0 0 0 1.379-2.981z" class="cls-1" data-name="Path 4" transform="translate(-213.736 -16.854)"/><path id="Path_5" d="M274.025 30.743a3.377 3.377 0 0 1 2.049-.671 2.338 2.338 0 0 1 2.31 1.118 7.318 7.318 0 0 1 .6 3.2v7.08a2.706 2.706 0 0 0 .6 1.9 2.007 2.007 0 0 0 1.528.671 1.887 1.887 0 0 0 1.528-.671 2.934 2.934 0 0 0 .6-1.938v-7.857c0-.783-.037-1.528-.112-2.31a4.463 4.463 0 0 0-.559-1.677 4.389 4.389 0 0 0-1.975-2.049 6.425 6.425 0 0 0-2.981-.745 6.247 6.247 0 0 0-3.056.708 7.584 7.584 0 0 0-2.459 2.161v-.522a3.139 3.139 0 0 0-.261-1.3 1.682 1.682 0 0 0-.745-.783 1.933 1.933 0 0 0-1.006-.261 1.789 1.789 0 0 0-1.453.6 2.808 2.808 0 0 0-.522 1.826v12.26a2.706 2.706 0 0 0 .6 1.9 1.93 1.93 0 0 0 1.491.671 2.053 2.053 0 0 0 1.565-.633 2.745 2.745 0 0 0 .6-1.938v-5.337a12.234 12.234 0 0 1 .335-3.54 3.713 3.713 0 0 1 1.323-1.863z" class="cls-1" data-name="Path 5" transform="translate(-168.197 -16.797)"/><path id="Path_6" d="M40.28 30.513c-.6-1.416-1.192-2.571-2.049-3.018a6.981 6.981 0 0 0-2.161-.447 46.587 46.587 0 0 0-7.9.037 8.193 8.193 0 0 0-2.348.447c-.894.41-1.491 1.6-2.087 3.018a6.752 6.752 0 0 1-.335.969h17.253c-.037-.038-.298-.819-.373-1.006z" class="cls-1" data-name="Path 6" transform="translate(-14.68 -16.865)"/><path id="Path_7" d="M313.522 20.5v8.123a11.461 11.461 0 0 0 .335 3.167 2.991 2.991 0 0 0 1.341 1.863 5.488 5.488 0 0 0 3.018.671 7.268 7.268 0 0 0 3.2-.559 1.72 1.72 0 0 0 1.124-1.565 1.44 1.44 0 0 0-.41-1.006 1.211 1.211 0 0 0-.932-.41 4.69 4.69 0 0 0-1.006.149 9.362 9.362 0 0 1-1.006.149 1.161 1.161 0 0 1-.969-.335 1.6 1.6 0 0 1-.373-.857c-.037-.522-.075-1.006-.075-1.528V20.5h.783a4.264 4.264 0 0 0 1.938-.335 1.237 1.237 0 0 0 .671-1.192 1.343 1.343 0 0 0-.484-1.081 2.018 2.018 0 0 0-1.379-.41h-1.528v-2.94a11.721 11.721 0 0 0-.112-1.64 1.815 1.815 0 0 0-.558-1.002 2.125 2.125 0 0 0-1.453-.6 2.538 2.538 0 0 0-1.043.261 1.625 1.625 0 0 0-.708.708 1.874 1.874 0 0 0-.3 1.006c-.037.373-.037.932-.037 1.6v2.571h-.484a2.218 2.218 0 0 0-1.453.41 1.377 1.377 0 0 0-.522 1.081 1.471 1.471 0 0 0 .484 1.118 2.111 2.111 0 0 0 1.379.447z" class="cls-1" data-name="Path 7" transform="translate(-195.174 -7.08)"/><path id="Path_8" d="M126.064 28.618a1.669 1.669 0 0 0-.559-1.267 1.914 1.914 0 0 0-1.379-.559 1.518 1.518 0 0 0-1.267.522 6.159 6.159 0 0 0-.859 1.714l-3.689 10.061-3.428-9.614a9.926 9.926 0 0 0-.857-2.049 1.581 1.581 0 0 0-1.453-.6 2.239 2.239 0 0 0-1.006.261 2.143 2.143 0 0 0-.708.708 1.45 1.45 0 0 0-.261.857 2.11 2.11 0 0 0 .112.671 4.383 4.383 0 0 0 .261.745c.075.261.186.484.261.745l3.987 9.987c.41.969.708 1.6.857 1.938a2.615 2.615 0 0 0 .783.894 2.218 2.218 0 0 0 1.453.41 2.65 2.65 0 0 0 1.192-.261 2.62 2.62 0 0 0 .82-.745 4.027 4.027 0 0 0 .6-1.118q.279-.671.447-1.118l4.062-10.1c.112-.261.224-.522.3-.745a3.936 3.936 0 0 0 .224-.708 1.892 1.892 0 0 0 .107-.629z" class="cls-1" data-name="Path 8" transform="translate(-69.387 -16.796)"/><path id="Path_9" d="M8.319 32.689a16.7 16.7 0 0 0 7.714 2.611h19.3V16.443a22.643 22.643 0 0 0-1.155-5.105A17.677 17.677 0 1 0 8.319 32.689zM4.966 13.834h1.378a.622.622 0 0 1 .671.559h.522c.149-.484.3-.969.484-1.416C8.692 11.263 9.4 10 10.443 9.474a7.7 7.7 0 0 1 2.422-.6 25.348 25.348 0 0 1 3.354-.224 43.387 43.387 0 0 1 3.8.037 22.778 22.778 0 0 1 3.2.335 6.226 6.226 0 0 1 1.677.484c1.006.484 1.714 1.751 2.385 3.428.186.484.373.969.522 1.453h.522a.622.622 0 0 1 .675-.553h1.379s1.23 0 1.23 1.043a.83.83 0 0 1-.335.633 2.682 2.682 0 0 1-1.863.447s-.708.037-.932-.41c-.037-.075-.112-.186-.149-.261-.112-.149-.261-.149-.224 0a6.562 6.562 0 0 0 .522.857 3.78 3.78 0 0 1 .6.969 5.426 5.426 0 0 1 .6 2.273 4.919 4.919 0 0 1-1.267 3.391V24.6a2 2 0 0 1-2.012 1.975h-2.132a2.205 2.205 0 0 1-1.938-1.675h-9.651a2.3 2.3 0 0 1-1.938 1.677H8.766a1.916 1.916 0 0 1-1.9-1.938v-1.824a4.977 4.977 0 0 1-.745-5.664 5.213 5.213 0 0 1 .6-.969 4.057 4.057 0 0 0 .522-.857c.075-.149-.112-.149-.224 0a.6.6 0 0 0-.149.261c-.224.447-.932.41-.932.41a2.682 2.682 0 0 1-1.863-.447.773.773 0 0 1-.335-.633c-.004-1.082 1.226-1.082 1.226-1.082z" class="cls-1" data-name="Path 9" transform="translate(-.01)"/><path id="Path_10" d="M234.345 40.592a9.457 9.457 0 0 1-.41-2.5c.037-.857.037-1.64.037-2.31v-2.53a9.143 9.143 0 0 0-.671-3.8 4.037 4.037 0 0 0-2.273-2.087 11.716 11.716 0 0 0-4.4-.671 11.4 11.4 0 0 0-4.173.671 5.511 5.511 0 0 0-2.455 1.75 3.574 3.574 0 0 0-.783 2.161 1.472 1.472 0 0 0 .522 1.155 1.681 1.681 0 0 0 1.23.447 1.468 1.468 0 0 0 1.043-.261 8.47 8.47 0 0 0 .82-1.192 3.662 3.662 0 0 1 1.379-1.341 5.187 5.187 0 0 1 2.422-.447q1.9 0 2.459.783a4.213 4.213 0 0 1 .671 2.459q-1.341.391-2.459.671c-.745.186-1.677.373-2.757.6s-1.751.373-2.012.41a5.492 5.492 0 0 0-3.018 1.64 4.192 4.192 0 0 0-1.118 2.981 4.433 4.433 0 0 0 .671 2.385 4.787 4.787 0 0 0 1.9 1.751 5.882 5.882 0 0 0 2.869.633 8.772 8.772 0 0 0 3.242-.6 13.469 13.469 0 0 0 2.981-1.789 8.84 8.84 0 0 0 1.379 1.789 1.724 1.724 0 0 0 1.3.6 2.045 2.045 0 0 0 1.379-.522 1.5 1.5 0 0 0 .6-1.192 5.22 5.22 0 0 0-.375-1.644zm-5.105-1.379a3.393 3.393 0 0 1-1.565 1.416 5.031 5.031 0 0 1-2.31.559 2.707 2.707 0 0 1-1.9-.671 2.127 2.127 0 0 1-.745-1.64 1.789 1.789 0 0 1 .6-1.453 3.422 3.422 0 0 1 1.3-.708q.671-.168 2.459-.559a22.424 22.424 0 0 0 2.72-.708v.6a5.782 5.782 0 0 1-.559 3.165z" class="cls-1" data-name="Path 10" transform="translate(-137.013 -16.734)"/><path id="Path_11" d="M25.528 48.7a1.528 1.528 0 1 0 1.528 1.528 1.535 1.535 0 0 0-1.528-1.528z" class="cls-1" data-name="Path 11" transform="translate(-15.057 -30.543)"/><path id="Path_12" d="M3.726 118.4a.691.691 0 0 0-.261.075.382.382 0 0 0-.186.224l-1.155 2.571-1.155-2.57a.526.526 0 0 0-.447-.3.478.478 0 0 0-.373.149.363.363 0 0 0-.149.335.279.279 0 0 0 .037.186l1.563 3.243a.5.5 0 0 0 .224.261.877.877 0 0 0 .3.075.7.7 0 0 0 .3-.075.808.808 0 0 0 .224-.261l1.565-3.242a.405.405 0 0 0 .037-.186.455.455 0 0 0-.149-.335.662.662 0 0 0-.375-.15z" class="cls-1" data-name="Path 12" transform="translate(0 -74.271)"/><path id="Path_13" d="M16.038 120.375a2.269 2.269 0 0 0-.224-1.043 1.579 1.579 0 0 0-.633-.671 2.068 2.068 0 0 0-2.012 0 1.938 1.938 0 0 0-.708.745 2.739 2.739 0 0 0-.261 1.118 2 2 0 0 0 .6 1.565 2.343 2.343 0 0 0 2.236.447 3.225 3.225 0 0 0 .633-.261.463.463 0 0 0 .3-.447.7.7 0 0 0-.075-.3.322.322 0 0 0-.224-.112.812.812 0 0 0-.373.149c-.186.075-.335.149-.447.186a1.888 1.888 0 0 1-.484.075 1.144 1.144 0 0 1-.82-.261 1.3 1.3 0 0 1-.335-.857h2.459c.256.04.368-.108.368-.333zm-2.795-.186a1.5 1.5 0 0 1 .3-.783.993.993 0 0 1 1.341 0 1.5 1.5 0 0 1 .261.783z" class="cls-1" data-name="Path 13" transform="translate(-7.654 -74.271)"/><path id="Path_14" d="M27.185 118.4a1.732 1.732 0 0 0-.783.186 1.494 1.494 0 0 0-.559.522v-.224a.363.363 0 0 0-.149-.335.556.556 0 0 0-.373-.112.432.432 0 0 0-.373.149.4.4 0 0 0-.149.335v3.242a.478.478 0 0 0 .149.373.569.569 0 0 0 .373.149.509.509 0 0 0 .522-.522V120.3a.96.96 0 0 1 .969-1.043.654.654 0 0 1 .559.224 1.152 1.152 0 0 1 .186.708v2.011a.478.478 0 0 0 .149.373.662.662 0 0 0 .373.149.432.432 0 0 0 .373-.149.569.569 0 0 0 .149-.373v-2.049a1.839 1.839 0 0 0-.373-1.267 1.1 1.1 0 0 0-1.043-.484z" class="cls-1" data-name="Path 14" transform="translate(-15.559 -74.271)"/><path id="Path_15" d="M41.015 113.7a.556.556 0 0 0-.373.112.472.472 0 0 0-.149.335v1.975a1.177 1.177 0 0 0-.522-.522 1.732 1.732 0 0 0-.783-.186 1.525 1.525 0 0 0-.932.261 1.787 1.787 0 0 0-.633.745 2.907 2.907 0 0 0 0 2.236 1.584 1.584 0 0 0 .633.745 1.6 1.6 0 0 0 .932.261 1.732 1.732 0 0 0 .783-.186 1.177 1.177 0 0 0 .522-.522v.224a.478.478 0 0 0 .149.373.662.662 0 0 0 .373.149.509.509 0 0 0 .522-.522v-4.993a.363.363 0 0 0-.149-.335.392.392 0 0 0-.373-.15zm-.745 4.844a1.081 1.081 0 0 1-1.565 0 1.546 1.546 0 0 1-.261-1.006 1.5 1.5 0 0 1 .261-.969 1.081 1.081 0 0 1 1.565 0 1.5 1.5 0 0 1 .261.969 1.806 1.806 0 0 1-.262 1.006z" class="cls-1" data-name="Path 15" transform="translate(-23.464 -71.322)"/><path id="Path_16" d="M54.638 120.375a2.269 2.269 0 0 0-.224-1.043 1.579 1.579 0 0 0-.633-.671 2.068 2.068 0 0 0-2.012 0 1.938 1.938 0 0 0-.708.745 2.739 2.739 0 0 0-.261 1.118 2 2 0 0 0 .6 1.565 2.343 2.343 0 0 0 2.236.447 3.225 3.225 0 0 0 .633-.261.463.463 0 0 0 .3-.447.7.7 0 0 0-.075-.3.322.322 0 0 0-.224-.112.812.812 0 0 0-.373.149c-.186.075-.335.149-.447.186a1.888 1.888 0 0 1-.484.075 1.144 1.144 0 0 1-.82-.261 1.3 1.3 0 0 1-.335-.857h2.459c.256.04.368-.108.368-.333zm-2.795-.186a1.5 1.5 0 0 1 .3-.783.993.993 0 0 1 1.341 0 1.5 1.5 0 0 1 .261.783z" class="cls-1" data-name="Path 16" transform="translate(-31.87 -74.271)"/><path id="Path_17" d="M65.61 118.4h-.11a1.227 1.227 0 0 0-.708.224 1.393 1.393 0 0 0-.484.559v-.335a.363.363 0 0 0-.149-.335.52.52 0 0 0-.335-.112.629.629 0 0 0-.373.112.392.392 0 0 0-.149.373v3.242a.432.432 0 0 0 .149.373.677.677 0 0 0 .745 0 .432.432 0 0 0 .149-.373v-1.751a1.074 1.074 0 0 1 .224-.708 1.063 1.063 0 0 1 .708-.335l.261-.037a.859.859 0 0 0 .41-.149.559.559 0 0 0 0-.671.744.744 0 0 0-.338-.077z" class="cls-1" data-name="Path 17" transform="translate(-39.712 -74.271)"/><path id="Path_18" d="M80.642 118.661a2.072 2.072 0 0 0-1.118-.261 2.251 2.251 0 0 0-1.118.261 2.042 2.042 0 0 0-.745.745 2.251 2.251 0 0 0-.261 1.118 2.072 2.072 0 0 0 .261 1.118 1.8 1.8 0 0 0 .745.745 2.071 2.071 0 0 0 1.118.261 2.251 2.251 0 0 0 1.118-.261 2.041 2.041 0 0 0 .745-.745 2.251 2.251 0 0 0 .261-1.118 2.071 2.071 0 0 0-.261-1.118 2.041 2.041 0 0 0-.745-.745zm-.335 2.869a1.081 1.081 0 0 1-1.565 0 1.546 1.546 0 0 1-.261-1.006 1.434 1.434 0 0 1 .261-.969 1.081 1.081 0 0 1 1.565 0 1.5 1.5 0 0 1 .261.969 1.546 1.546 0 0 1-.261 1.006z" class="cls-1" data-name="Path 18" transform="translate(-48.558 -74.271)"/><path id="Path_19" d="M94.179 118.4a.509.509 0 0 0-.522.522v1.863a1.107 1.107 0 0 1-.261.783.954.954 0 0 1-.708.3.654.654 0 0 1-.559-.224 1.066 1.066 0 0 1-.186-.633v-2.087a.478.478 0 0 0-.149-.373.662.662 0 0 0-.373-.149.509.509 0 0 0-.522.522v2.049c0 1.118.484 1.677 1.491 1.677a1.7 1.7 0 0 0 .745-.186 1.4 1.4 0 0 0 .522-.522v.224a.363.363 0 0 0 .149.335.556.556 0 0 0 .373.112.432.432 0 0 0 .373-.149.4.4 0 0 0 .149-.335v-3.242a.478.478 0 0 0-.149-.373.732.732 0 0 0-.373-.114z" class="cls-1" data-name="Path 19" transform="translate(-57.028 -74.271)"/><path id="Path_20" d="M112.691 121.581a.336.336 0 0 0-.186.037l-.224.112a3.464 3.464 0 0 0-.373.186 1.1 1.1 0 0 1-.373.075.962.962 0 0 1-.783-.335 1.5 1.5 0 0 1-.3-.969 1.318 1.318 0 0 1 .3-.969.962.962 0 0 1 .783-.335 1.1 1.1 0 0 1 .373.075 1.511 1.511 0 0 1 .335.186.814.814 0 0 1 .186.112.405.405 0 0 0 .186.037.225.225 0 0 0 .224-.112.4.4 0 0 0 .075-.3.487.487 0 0 0-.261-.447 2.209 2.209 0 0 0-.6-.261 2.063 2.063 0 0 0-.671-.075 2 2 0 0 0-1.826 1.006 2.526 2.526 0 0 0 0 2.236 1.711 1.711 0 0 0 .708.745 2.022 2.022 0 0 0 1.081.261 2.34 2.34 0 0 0 .708-.112 2.21 2.21 0 0 0 .6-.261 1.181 1.181 0 0 0 .224-.186.539.539 0 0 0 .075-.261.7.7 0 0 0-.075-.3.19.19 0 0 0-.186-.145z" class="cls-1" data-name="Path 20" transform="translate(-68.571 -74.396)"/><path id="Path_21" d="M123.642 118.661a2.072 2.072 0 0 0-1.118-.261 2.251 2.251 0 0 0-1.118.261 2.041 2.041 0 0 0-.745.745 2.25 2.25 0 0 0-.261 1.118 2.071 2.071 0 0 0 .261 1.118 1.8 1.8 0 0 0 .745.745 2.071 2.071 0 0 0 1.118.261 2.25 2.25 0 0 0 1.118-.261 2.041 2.041 0 0 0 .745-.745 2.251 2.251 0 0 0 .261-1.118 2.072 2.072 0 0 0-.261-1.118 2.041 2.041 0 0 0-.745-.745zm-.335 2.869a1.081 1.081 0 0 1-1.565 0 1.546 1.546 0 0 1-.261-1.006 1.434 1.434 0 0 1 .261-.969 1.081 1.081 0 0 1 1.565 0 1.5 1.5 0 0 1 .261.969 1.546 1.546 0 0 1-.261 1.006z" class="cls-1" data-name="Path 21" transform="translate(-75.535 -74.271)"/><path id="Path_22" d="M138.819 118.4a1.6 1.6 0 0 0-.82.224 2 2 0 0 0-.559.559 1.226 1.226 0 0 0-1.23-.783 1.7 1.7 0 0 0-.745.186 1.4 1.4 0 0 0-.522.522v-.186a.363.363 0 0 0-.149-.335.556.556 0 0 0-.373-.112.63.63 0 0 0-.373.112.392.392 0 0 0-.149.373v3.24a.432.432 0 0 0 .149.373.677.677 0 0 0 .745 0 .432.432 0 0 0 .149-.373v-1.863a1.222 1.222 0 0 1 .224-.783.8.8 0 0 1 .633-.3.644.644 0 0 1 .484.186 1.051 1.051 0 0 1 .149.671v2.049a.432.432 0 0 0 .149.373.677.677 0 0 0 .745 0 .432.432 0 0 0 .149-.373v-1.86a1.05 1.05 0 0 1 .261-.783.819.819 0 0 1 .671-.3.644.644 0 0 1 .484.186 1.051 1.051 0 0 1 .149.671v2.049a.432.432 0 0 0 .149.373.63.63 0 0 0 .373.112.556.556 0 0 0 .373-.112.432.432 0 0 0 .149-.373v-2.049a1.881 1.881 0 0 0-.373-1.3c-.111-.262-.445-.374-.892-.374z" class="cls-1" data-name="Path 22" transform="translate(-84.005 -74.271)"/><path id="Path_23" d="M156.979 118.6a1.6 1.6 0 0 0-.932-.261 1.732 1.732 0 0 0-.783.186 1.177 1.177 0 0 0-.522.522v-.224a.478.478 0 0 0-.149-.373.662.662 0 0 0-.373-.149.432.432 0 0 0-.373.149.569.569 0 0 0-.149.373v4.732a.363.363 0 0 0 .149.335.662.662 0 0 0 .373.149.556.556 0 0 0 .373-.112.363.363 0 0 0 .149-.335v-1.677a1.4 1.4 0 0 0 .522.522 1.732 1.732 0 0 0 .783.186 1.525 1.525 0 0 0 .932-.261 1.788 1.788 0 0 0 .633-.745 2.907 2.907 0 0 0 0-2.236 1.651 1.651 0 0 0-.633-.781zm-.447 2.832a1.081 1.081 0 0 1-1.565 0 1.93 1.93 0 0 1 0-1.938 1.081 1.081 0 0 1 1.565 0 1.546 1.546 0 0 1 .261 1.006 1.215 1.215 0 0 1-.261.93z" class="cls-1" data-name="Path 23" transform="translate(-96.426 -74.208)"/><path id="Path_24" d="M169.41 118.4h-.11a1.227 1.227 0 0 0-.708.224 1.393 1.393 0 0 0-.484.559v-.335a.363.363 0 0 0-.149-.335.52.52 0 0 0-.335-.112.629.629 0 0 0-.373.112.392.392 0 0 0-.149.373v3.242a.432.432 0 0 0 .149.373.677.677 0 0 0 .745 0 .432.432 0 0 0 .149-.373v-1.751a1.075 1.075 0 0 1 .224-.708 1.063 1.063 0 0 1 .708-.335l.261-.037a.858.858 0 0 0 .41-.149.559.559 0 0 0 0-.671.744.744 0 0 0-.338-.077z" class="cls-1" data-name="Path 24" transform="translate(-104.833 -74.271)"/><path id="Path_25" d="M177.363 118.4a5.558 5.558 0 0 0-.783.075 3.126 3.126 0 0 0-.708.261c-.112.075-.186.112-.224.186a.539.539 0 0 0-.075.261.423.423 0 0 0 .112.3.338.338 0 0 0 .261.112.858.858 0 0 0 .335-.112 5.31 5.31 0 0 1 .6-.186 2.181 2.181 0 0 1 .484-.075.771.771 0 0 1 .559.186.875.875 0 0 1 .186.6v.186h-.224a6.983 6.983 0 0 0-1.416.112 1.284 1.284 0 0 0-.745.373 1.074 1.074 0 0 0-.224.708 1.518 1.518 0 0 0 .186.671 1.239 1.239 0 0 0 .522.447 1.668 1.668 0 0 0 .745.149 1.427 1.427 0 0 0 .708-.186 1.239 1.239 0 0 0 .447-.522v.186a.363.363 0 0 0 .149.335.569.569 0 0 0 .373.149.63.63 0 0 0 .369-.116.569.569 0 0 0 .149-.373v-2.012a1.95 1.95 0 0 0-.41-1.3 2.325 2.325 0 0 0-1.376-.415zm.708 2.5a.956.956 0 0 1-.932 1.006.636.636 0 0 1-.633-.633.363.363 0 0 1 .149-.335.84.84 0 0 1 .447-.186 5.531 5.531 0 0 1 .857-.037h.149v.186z" class="cls-1" data-name="Path 25" transform="translate(-110.103 -74.271)"/><path id="Path_26" d="M190.11 118.4H190a1.227 1.227 0 0 0-.708.224 1.393 1.393 0 0 0-.484.559v-.335a.363.363 0 0 0-.149-.335.52.52 0 0 0-.335-.112.63.63 0 0 0-.373.112.392.392 0 0 0-.149.373v3.242a.432.432 0 0 0 .149.373.677.677 0 0 0 .745 0 .432.432 0 0 0 .149-.373v-1.751a1.074 1.074 0 0 1 .224-.708 1.063 1.063 0 0 1 .708-.335l.261-.037a.859.859 0 0 0 .41-.149.559.559 0 0 0 0-.671.744.744 0 0 0-.338-.077z" class="cls-1" data-name="Path 26" transform="translate(-117.82 -74.271)"/><path id="Path_27" d="M204.832 120.449a3.7 3.7 0 0 0-.894-.261 2.616 2.616 0 0 1-.708-.224.395.395 0 0 1 0-.671.932.932 0 0 1 .484-.112 1.39 1.39 0 0 1 .447.075 3.626 3.626 0 0 1 .41.186l.224.112a.336.336 0 0 0 .186.037.322.322 0 0 0 .224-.112.4.4 0 0 0 .075-.3.487.487 0 0 0-.261-.447 2.883 2.883 0 0 0-.6-.261 2.74 2.74 0 0 0-1.528.075 1.483 1.483 0 0 0-.6.447 1.04 1.04 0 0 0-.224.671.843.843 0 0 0 .335.745 2.108 2.108 0 0 0 1.081.41c.261.075.484.112.633.149a1.093 1.093 0 0 1 .3.149.529.529 0 0 1 .075.224.391.391 0 0 1-.186.335 1.141 1.141 0 0 1-.559.112 2.255 2.255 0 0 1-.559-.075 4.179 4.179 0 0 1-.484-.186 1.105 1.105 0 0 0-.41-.149.322.322 0 0 0-.224.112.314.314 0 0 0-.075.261.487.487 0 0 0 .261.447 2.835 2.835 0 0 0 1.491.373 2.209 2.209 0 0 0 1.267-.335 1.114 1.114 0 0 0 .484-.932 1.094 1.094 0 0 0-.149-.6 3.355 3.355 0 0 1-.516-.255z" class="cls-1" data-name="Path 27" transform="translate(-126.728 -74.271)"/><path id="Path_28" d="M216.638 120.375a2.269 2.269 0 0 0-.224-1.043 1.579 1.579 0 0 0-.633-.671 2.068 2.068 0 0 0-2.012 0 1.938 1.938 0 0 0-.708.745 2.739 2.739 0 0 0-.261 1.118 2 2 0 0 0 .6 1.565 2.343 2.343 0 0 0 2.236.447 3.225 3.225 0 0 0 .633-.261.463.463 0 0 0 .3-.447.7.7 0 0 0-.075-.3.322.322 0 0 0-.224-.112.812.812 0 0 0-.373.149c-.186.075-.335.149-.447.186a1.888 1.888 0 0 1-.484.075 1.144 1.144 0 0 1-.82-.261 1.3 1.3 0 0 1-.335-.857h2.459c.256.04.368-.108.368-.333zm-2.795-.186a1.5 1.5 0 0 1 .3-.783.993.993 0 0 1 1.341 0 1.5 1.5 0 0 1 .261.783z" class="cls-1" data-name="Path 28" transform="translate(-133.504 -74.271)"/><path id="Path_29" d="M230.219 118.4a1.6 1.6 0 0 0-.82.224 2 2 0 0 0-.559.559 1.226 1.226 0 0 0-1.23-.783 1.7 1.7 0 0 0-.745.186 1.4 1.4 0 0 0-.522.522v-.186a.363.363 0 0 0-.149-.335.556.556 0 0 0-.373-.112.63.63 0 0 0-.373.112.393.393 0 0 0-.149.373v3.24a.432.432 0 0 0 .149.373.677.677 0 0 0 .745 0 .432.432 0 0 0 .149-.373v-1.863a1.223 1.223 0 0 1 .224-.783.8.8 0 0 1 .633-.3.644.644 0 0 1 .484.186 1.051 1.051 0 0 1 .149.671v2.049a.432.432 0 0 0 .149.373.677.677 0 0 0 .745 0 .432.432 0 0 0 .149-.373v-1.86a1.05 1.05 0 0 1 .261-.783.819.819 0 0 1 .671-.3.644.644 0 0 1 .484.186 1.051 1.051 0 0 1 .149.671v2.049a.432.432 0 0 0 .149.373.63.63 0 0 0 .373.112.556.556 0 0 0 .373-.112.432.432 0 0 0 .149-.373v-2.049a1.881 1.881 0 0 0-.373-1.3c-.111-.262-.445-.374-.892-.374z" class="cls-1" data-name="Path 29" transform="translate(-141.346 -74.271)"/><path id="Path_30" d="M253.432 120.449a3.7 3.7 0 0 0-.894-.261 2.616 2.616 0 0 1-.708-.224.4.4 0 0 1 0-.671.932.932 0 0 1 .484-.112 1.39 1.39 0 0 1 .447.075 3.625 3.625 0 0 1 .41.186l.224.112a.336.336 0 0 0 .186.037.322.322 0 0 0 .224-.112.4.4 0 0 0 .075-.3.487.487 0 0 0-.261-.447 2.884 2.884 0 0 0-.6-.261 2.74 2.74 0 0 0-1.528.075 1.482 1.482 0 0 0-.6.447 1.04 1.04 0 0 0-.224.671.843.843 0 0 0 .335.745 2.108 2.108 0 0 0 1.081.41c.261.075.484.112.633.149a1.092 1.092 0 0 1 .3.149.53.53 0 0 1 .075.224.391.391 0 0 1-.186.335 1.141 1.141 0 0 1-.559.112 2.255 2.255 0 0 1-.559-.075 4.179 4.179 0 0 1-.484-.186 1.106 1.106 0 0 0-.41-.149.322.322 0 0 0-.224.112.314.314 0 0 0-.075.261.487.487 0 0 0 .261.447 2.835 2.835 0 0 0 1.491.373 2.209 2.209 0 0 0 1.267-.335 1.114 1.114 0 0 0 .484-.932 1.094 1.094 0 0 0-.149-.6c-.106-.18-.33-.143-.516-.255z" class="cls-1" data-name="Path 30" transform="translate(-157.218 -74.271)"/><path id="Path_31" d="M265.238 120.375a2.269 2.269 0 0 0-.224-1.043 1.579 1.579 0 0 0-.633-.671 2.068 2.068 0 0 0-2.012 0 1.937 1.937 0 0 0-.708.745 2.738 2.738 0 0 0-.261 1.118 2 2 0 0 0 .6 1.565 2.343 2.343 0 0 0 2.236.447 3.225 3.225 0 0 0 .633-.261.463.463 0 0 0 .3-.447.7.7 0 0 0-.075-.3.322.322 0 0 0-.224-.112.812.812 0 0 0-.373.149c-.186.075-.335.149-.447.186a1.888 1.888 0 0 1-.484.075 1.144 1.144 0 0 1-.82-.261 1.3 1.3 0 0 1-.335-.857h2.459c.256.04.368-.108.368-.333zm-2.795-.186a1.5 1.5 0 0 1 .3-.783.993.993 0 0 1 1.341 0 1.5 1.5 0 0 1 .261.783z" class="cls-1" data-name="Path 31" transform="translate(-163.994 -74.271)"/><path id="Path_32" d="M283.379 118.6a1.6 1.6 0 0 0-.932-.261 1.732 1.732 0 0 0-.783.186 1.178 1.178 0 0 0-.522.522v-.224a.478.478 0 0 0-.149-.373.662.662 0 0 0-.373-.149.432.432 0 0 0-.373.149.569.569 0 0 0-.149.373v4.732a.363.363 0 0 0 .149.335.662.662 0 0 0 .373.149.556.556 0 0 0 .373-.112.363.363 0 0 0 .149-.335v-1.677a1.4 1.4 0 0 0 .522.522 1.732 1.732 0 0 0 .783.186 1.525 1.525 0 0 0 .932-.261 1.788 1.788 0 0 0 .633-.745 2.906 2.906 0 0 0 0-2.236 1.651 1.651 0 0 0-.633-.781zm-.447 2.832a1.081 1.081 0 0 1-1.565 0 1.93 1.93 0 0 1 0-1.938 1.081 1.081 0 0 1 1.565 0 1.546 1.546 0 0 1 .261 1.006 1.216 1.216 0 0 1-.261.93z" class="cls-1" data-name="Path 32" transform="translate(-175.726 -74.208)"/><path id="Path_33" d="M295.81 118.4h-.11a1.227 1.227 0 0 0-.708.224 1.392 1.392 0 0 0-.484.559v-.335a.363.363 0 0 0-.149-.335.52.52 0 0 0-.335-.112.63.63 0 0 0-.373.112.392.392 0 0 0-.149.373v3.242a.432.432 0 0 0 .149.373.677.677 0 0 0 .745 0 .432.432 0 0 0 .149-.373v-1.751a1.074 1.074 0 0 1 .224-.708 1.063 1.063 0 0 1 .708-.335l.261-.037a.858.858 0 0 0 .41-.149.559.559 0 0 0 0-.671.744.744 0 0 0-.338-.077z" class="cls-1" data-name="Path 33" transform="translate(-184.133 -74.271)"/><path id="Path_34" d="M305.138 120.375a2.268 2.268 0 0 0-.224-1.043 1.579 1.579 0 0 0-.633-.671 2.068 2.068 0 0 0-2.012 0 1.938 1.938 0 0 0-.708.745 2.739 2.739 0 0 0-.261 1.118 2 2 0 0 0 .6 1.565 2.343 2.343 0 0 0 2.236.447 3.223 3.223 0 0 0 .633-.261.463.463 0 0 0 .3-.447.7.7 0 0 0-.075-.3.322.322 0 0 0-.224-.112.812.812 0 0 0-.373.149c-.186.075-.335.149-.447.186a1.888 1.888 0 0 1-.484.075 1.144 1.144 0 0 1-.82-.261 1.3 1.3 0 0 1-.335-.857h2.459c.256.04.368-.108.368-.333zm-2.795-.186a1.5 1.5 0 0 1 .3-.783.993.993 0 0 1 1.342 0 1.5 1.5 0 0 1 .261.783z" class="cls-1" data-name="Path 34" transform="translate(-189.026 -74.271)"/><path id="Path_35" d="M316.442 118.661a2.072 2.072 0 0 0-1.118-.261 2.251 2.251 0 0 0-1.118.261 2.041 2.041 0 0 0-.745.745 2.25 2.25 0 0 0-.261 1.118 2.071 2.071 0 0 0 .261 1.118 1.8 1.8 0 0 0 .745.745 2.071 2.071 0 0 0 1.118.261 2.251 2.251 0 0 0 1.118-.261 2.042 2.042 0 0 0 .745-.745 2.25 2.25 0 0 0 .261-1.118 2.071 2.071 0 0 0-.261-1.118 2.042 2.042 0 0 0-.745-.745zm-.335 2.869a1.081 1.081 0 0 1-1.565 0 1.546 1.546 0 0 1-.261-1.006 1.434 1.434 0 0 1 .261-.969 1.081 1.081 0 0 1 1.565 0 1.5 1.5 0 0 1 .261.969 1.545 1.545 0 0 1-.262 1.006z" class="cls-1" data-name="Path 35" transform="translate(-196.492 -74.271)"/><path id="Path_36" d="M329.391 121.581a.336.336 0 0 0-.186.037l-.224.112a3.462 3.462 0 0 0-.373.186 1.1 1.1 0 0 1-.373.075.962.962 0 0 1-.783-.335 1.5 1.5 0 0 1-.3-.969 1.318 1.318 0 0 1 .3-.969.962.962 0 0 1 .783-.335 1.1 1.1 0 0 1 .373.075 1.512 1.512 0 0 1 .335.186.815.815 0 0 1 .186.112.405.405 0 0 0 .186.037.225.225 0 0 0 .224-.112.4.4 0 0 0 .075-.3.487.487 0 0 0-.261-.447 2.208 2.208 0 0 0-.6-.261 2.063 2.063 0 0 0-.671-.075 2 2 0 0 0-1.826 1.006 2.526 2.526 0 0 0 0 2.236 1.711 1.711 0 0 0 .708.745 2.022 2.022 0 0 0 1.081.261 2.34 2.34 0 0 0 .708-.112 2.21 2.21 0 0 0 .6-.261 1.182 1.182 0 0 0 .224-.186.539.539 0 0 0 .075-.261.7.7 0 0 0-.075-.3.19.19 0 0 0-.186-.145z" class="cls-1" data-name="Path 36" transform="translate(-204.522 -74.396)"/><path id="Path_37" d="M340.979 118.4a.509.509 0 0 0-.522.522v1.863a1.107 1.107 0 0 1-.261.783.954.954 0 0 1-.708.3.654.654 0 0 1-.559-.224 1.066 1.066 0 0 1-.186-.633v-2.087a.478.478 0 0 0-.149-.373.662.662 0 0 0-.373-.149.509.509 0 0 0-.522.522v2.049c0 1.118.484 1.677 1.491 1.677a1.7 1.7 0 0 0 .745-.186 1.4 1.4 0 0 0 .522-.522v.224a.363.363 0 0 0 .149.335.556.556 0 0 0 .373.112.432.432 0 0 0 .373-.149.4.4 0 0 0 .149-.335v-3.242a.478.478 0 0 0-.149-.373.882.882 0 0 0-.373-.114z" class="cls-1" data-name="Path 37" transform="translate(-211.862 -74.271)"/><path id="Path_38" d="M354.179 118.6a1.6 1.6 0 0 0-.932-.261 1.732 1.732 0 0 0-.783.186 1.177 1.177 0 0 0-.522.522v-.224a.478.478 0 0 0-.149-.373.662.662 0 0 0-.373-.149.432.432 0 0 0-.373.149.569.569 0 0 0-.149.373v4.732a.363.363 0 0 0 .149.335.662.662 0 0 0 .373.149.556.556 0 0 0 .373-.112.363.363 0 0 0 .149-.335v-1.677a1.4 1.4 0 0 0 .522.522 1.732 1.732 0 0 0 .783.186 1.525 1.525 0 0 0 .932-.261 1.787 1.787 0 0 0 .633-.745 2.906 2.906 0 0 0 0-2.236 1.9 1.9 0 0 0-.633-.781zm-.447 2.832a1.081 1.081 0 0 1-1.565 0 1.93 1.93 0 0 1 0-1.938 1.081 1.081 0 0 1 1.565 0 1.546 1.546 0 0 1 .261 1.006 1.389 1.389 0 0 1-.261.93z" class="cls-1" data-name="Path 38" transform="translate(-220.144 -74.208)"/><path id="Path_39" d="M365.963 118.4a5.557 5.557 0 0 0-.783.075 3.125 3.125 0 0 0-.708.261c-.112.075-.186.112-.224.186a.538.538 0 0 0-.075.261.423.423 0 0 0 .112.3.338.338 0 0 0 .261.112.858.858 0 0 0 .335-.112 5.309 5.309 0 0 1 .6-.186 2.181 2.181 0 0 1 .484-.075.771.771 0 0 1 .559.186.875.875 0 0 1 .186.6v.186h-.224a6.982 6.982 0 0 0-1.416.112 1.284 1.284 0 0 0-.745.373 1.074 1.074 0 0 0-.224.708 1.519 1.519 0 0 0 .186.671 1.24 1.24 0 0 0 .522.447 1.668 1.668 0 0 0 .745.149 1.427 1.427 0 0 0 .708-.186 1.239 1.239 0 0 0 .447-.522v.186a.363.363 0 0 0 .149.335.569.569 0 0 0 .373.149.63.63 0 0 0 .373-.112.569.569 0 0 0 .149-.373v-2.012a1.951 1.951 0 0 0-.41-1.3 2.326 2.326 0 0 0-1.38-.419zm.671 2.5a.956.956 0 0 1-.932 1.006.636.636 0 0 1-.633-.633.363.363 0 0 1 .149-.335.84.84 0 0 1 .447-.186 5.531 5.531 0 0 1 .857-.037h.149v.186z" class="cls-1" data-name="Path 39" transform="translate(-228.425 -74.271)"/><path id="Path_40" d="M379.046 118.55a.335.335 0 0 0-.335-.075h-.111a1.227 1.227 0 0 0-.708.224 1.392 1.392 0 0 0-.484.559v-.335a.363.363 0 0 0-.149-.335.6.6 0 0 0-.335-.112.629.629 0 0 0-.373.112.392.392 0 0 0-.149.373v3.239a.432.432 0 0 0 .149.373.677.677 0 0 0 .745 0 .432.432 0 0 0 .149-.373v-1.75a1.075 1.075 0 0 1 .224-.708 1.063 1.063 0 0 1 .708-.335l.261-.037a.859.859 0 0 0 .41-.149.455.455 0 0 0 .112-.335.344.344 0 0 0-.114-.336z" class="cls-1" data-name="Path 40" transform="translate(-236.141 -74.309)"/></g></svg>