<svg xmlns="http://www.w3.org/2000/svg" viewBox="0 0 177.08 43.699">
    <defs>
        <style>
            .cls-1{fill:#fff}
        </style>
    </defs>
    <g id="Header_LOGO" data-name="Header LOGO" transform="translate(-.007 -.015)">
        <path id="Path_1" d="M63.792 48.8a1.9 1.9 0 0 0-1.892 1.892 1.932 1.932 0 0 0 1.892 1.892 1.892 1.892 0 1 0 0-3.785z" class="cls-1" data-name="Path 1" transform="translate(-33.332 -26.269)"/>
        <path id="Path_2" d="M169.792 29.727a9.545 9.545 0 0 0-3.323-2.215 12.607 12.607 0 0 0-8.631 0 8.836 8.836 0 0 0-3.323 2.169 9.15 9.15 0 0 0-2.077 3.369 13.249 13.249 0 0 0 0 8.723 9.608 9.608 0 0 0 5.4 5.584 11.409 11.409 0 0 0 4.292.785 11.6 11.6 0 0 0 4.338-.738 9.86 9.86 0 0 0 3.323-2.169 9.688 9.688 0 0 0 2.123-3.415 13.113 13.113 0 0 0 0-8.677 9.071 9.071 0 0 0-2.122-3.416zm-3.831 12.692a4.55 4.55 0 0 1-3.785 1.8 4.421 4.421 0 0 1-2.723-.831 5.3 5.3 0 0 1-1.8-2.354 10.568 10.568 0 0 1-.646-3.6 8.954 8.954 0 0 1 .646-3.646 5.064 5.064 0 0 1 1.8-2.354 4.382 4.382 0 0 1 2.723-.785 4.492 4.492 0 0 1 3.785 1.8 8 8 0 0 1 1.431 4.984 7.91 7.91 0 0 1-1.431 4.986z" class="cls-1" data-name="Path 2" transform="translate(-81.687 -14.396)"/>
        <path id="Path_3" d="M203.885 9.895a2.38 2.38 0 0 0-1.892.785 3.631 3.631 0 0 0-.692 2.4v22.753a3.579 3.579 0 0 0 .692 2.354 2.418 2.418 0 0 0 1.892.831 2.38 2.38 0 0 0 1.892-.785 3.4 3.4 0 0 0 .738-2.4V13.079a3.4 3.4 0 0 0-.738-2.4 2.539 2.539 0 0 0-1.892-.784z" class="cls-1" data-name="Path 3" transform="translate(-108.395 -5.318)"/>
        <path id="Path_4" d="M359.893 31.6a7.9 7.9 0 0 0 .415-1.385 9.02 9.02 0 0 0 .231-1.015 2.084 2.084 0 0 0-.323-1.154 2.056 2.056 0 0 0-.831-.831 2.552 2.552 0 0 0-1.154-.323 2.518 2.518 0 0 0-1.292.277 2.927 2.927 0 0 0-.877 1.108 34.243 34.243 0 0 0-.923 2.308l-4.2 12.046-4.431-12.931a7.234 7.234 0 0 0-1.015-2.077 2.036 2.036 0 0 0-1.708-.738 2.773 2.773 0 0 0-1.246.323 3.087 3.087 0 0 0-.969.923 2.027 2.027 0 0 0-.323 1.246 6.42 6.42 0 0 0 .6 2.031l6.461 16.292-.462 1.154c-.277.692-.6 1.338-.923 1.985a2.937 2.937 0 0 1-.923.923 3.761 3.761 0 0 1-1.431.277 2.9 2.9 0 0 1-.877-.138 2.555 2.555 0 0 0-.831-.092 2.265 2.265 0 0 0-1.615.508 1.778 1.778 0 0 0-.554 1.385 1.907 1.907 0 0 0 1.154 1.846 9.437 9.437 0 0 0 3.461.508 7.678 7.678 0 0 0 3.738-.738 5.759 5.759 0 0 0 2.261-2.077 19.073 19.073 0 0 0 1.708-3.692z" class="cls-1" data-name="Path 4" transform="translate(-183.452 -14.466)"/>
        <path id="Path_5" d="M275.438 31.686a4.183 4.183 0 0 1 2.538-.831 2.9 2.9 0 0 1 2.861 1.385 9.064 9.064 0 0 1 .738 3.969v8.769a3.352 3.352 0 0 0 .738 2.354 2.486 2.486 0 0 0 1.892.831 2.337 2.337 0 0 0 1.892-.831 3.634 3.634 0 0 0 .738-2.4v-9.738c0-.969-.046-1.892-.138-2.861a5.527 5.527 0 0 0-.692-2.077 5.436 5.436 0 0 0-2.446-2.538 7.958 7.958 0 0 0-3.692-.923 7.738 7.738 0 0 0-3.785.877 9.394 9.394 0 0 0-3.046 2.677V29.7a3.887 3.887 0 0 0-.323-1.615 2.083 2.083 0 0 0-.923-.969 2.4 2.4 0 0 0-1.246-.323 2.215 2.215 0 0 0-1.8.738 3.477 3.477 0 0 0-.646 2.261v15.186a3.352 3.352 0 0 0 .738 2.354 2.39 2.39 0 0 0 1.846.831 2.542 2.542 0 0 0 1.938-.785 3.4 3.4 0 0 0 .738-2.4v-6.6a15.155 15.155 0 0 1 .415-4.384 4.6 4.6 0 0 1 1.665-2.308z" class="cls-1" data-name="Path 5" transform="translate(-144.365 -14.417)"/>
        <path id="Path_6" d="M44.307 31.375c-.738-1.754-1.477-3.185-2.538-3.738a8.646 8.646 0 0 0-2.677-.554 57.7 57.7 0 0 0-9.784.046 10.148 10.148 0 0 0-2.908.554c-1.108.508-1.846 1.985-2.585 3.738a8.362 8.362 0 0 1-.415 1.2h21.369c-.047-.046-.369-1.015-.462-1.246z" class="cls-1" data-name="Path 6" transform="translate(-12.6 -14.475)"/>
        <path id="Path_7" d="M314.1 22.7v10.061a14.2 14.2 0 0 0 .415 3.923 3.7 3.7 0 0 0 1.662 2.308 6.8 6.8 0 0 0 3.738.831 9 9 0 0 0 3.969-.692 2.131 2.131 0 0 0 1.385-1.938 1.783 1.783 0 0 0-.508-1.246 1.5 1.5 0 0 0-1.154-.508 5.81 5.81 0 0 0-1.246.185 11.6 11.6 0 0 1-1.246.185 1.437 1.437 0 0 1-1.2-.415 1.983 1.983 0 0 1-.462-1.062c-.046-.646-.092-1.246-.092-1.892V22.7h.969a5.281 5.281 0 0 0 2.4-.415 1.532 1.532 0 0 0 .831-1.477 1.663 1.663 0 0 0-.6-1.338 2.5 2.5 0 0 0-1.708-.508h-1.892v-3.647a14.519 14.519 0 0 0-.138-2.031 2.248 2.248 0 0 0-.692-1.246 2.631 2.631 0 0 0-1.8-.738 3.144 3.144 0 0 0-1.292.323 2.012 2.012 0 0 0-.877.877 2.321 2.321 0 0 0-.369 1.246c-.046.462-.046 1.154-.046 1.985v3.185h-.6a2.747 2.747 0 0 0-1.8.508 1.706 1.706 0 0 0-.646 1.338 1.821 1.821 0 0 0 .6 1.385 2.615 2.615 0 0 0 1.708.554z" class="cls-1" data-name="Path 7" transform="translate(-167.52 -6.077)"/>
        <path id="Path_8" d="M129.753 29.055a2.067 2.067 0 0 0-.692-1.569 2.37 2.37 0 0 0-1.708-.692 1.88 1.88 0 0 0-1.569.646 7.628 7.628 0 0 0-1.062 2.123l-4.569 12.461-4.246-11.907a12.293 12.293 0 0 0-1.062-2.538 1.959 1.959 0 0 0-1.8-.738 2.773 2.773 0 0 0-1.246.323 2.655 2.655 0 0 0-.877.877 1.8 1.8 0 0 0-.322 1.059 2.613 2.613 0 0 0 .138.831 5.429 5.429 0 0 0 .323.923c.092.323.231.6.323.923l4.938 12.369c.508 1.2.877 1.985 1.062 2.4a3.239 3.239 0 0 0 .969 1.108 2.747 2.747 0 0 0 1.8.508 3.282 3.282 0 0 0 1.477-.323 3.246 3.246 0 0 0 1.015-.923 4.987 4.987 0 0 0 .738-1.385q.346-.831.554-1.385l5.031-12.507c.138-.323.277-.646.369-.923a4.875 4.875 0 0 0 .277-.877 2.344 2.344 0 0 0 .139-.784z" class="cls-1" data-name="Path 8" transform="translate(-59.555 -14.416)"/>
        <path id="Path_9" d="M10.3 40.484a20.687 20.687 0 0 0 9.554 3.231h23.907V20.362a28.046 28.046 0 0 0-1.431-6.323A21.894 21.894 0 1 0 10.3 40.484zM6.147 17.131h1.707a.77.77 0 0 1 .831.692h.646c.185-.6.369-1.2.6-1.754.831-2.123 1.708-3.692 3-4.338a9.538 9.538 0 0 1 3-.738 31.4 31.4 0 0 1 4.154-.277 53.577 53.577 0 0 1 4.708.046 28.211 28.211 0 0 1 3.969.415 7.711 7.711 0 0 1 2.077.6c1.246.6 2.123 2.169 2.954 4.246.231.6.462 1.2.646 1.8h.646a.77.77 0 0 1 .831-.692h1.708s1.523 0 1.523 1.292a1.028 1.028 0 0 1-.415.785 3.322 3.322 0 0 1-2.308.554s-.877.046-1.154-.508c-.046-.092-.138-.231-.185-.323-.138-.185-.323-.185-.277 0a8.128 8.128 0 0 0 .646 1.062 4.682 4.682 0 0 1 .738 1.2 6.721 6.721 0 0 1 .738 2.815 6.093 6.093 0 0 1-1.569 4.2v2.261a2.472 2.472 0 0 1-2.492 2.446h-2.631a2.731 2.731 0 0 1-2.4-2.077H15.885a2.845 2.845 0 0 1-2.4 2.077h-2.631a2.373 2.373 0 0 1-2.354-2.4v-2.261a6.164 6.164 0 0 1-.923-7.015 6.456 6.456 0 0 1 .738-1.2 5.025 5.025 0 0 0 .646-1.062c.092-.185-.138-.185-.277 0a.744.744 0 0 0-.184.323c-.277.554-1.154.508-1.154.508a3.322 3.322 0 0 1-2.308-.554.958.958 0 0 1-.415-.785c.001-1.338 1.524-1.338 1.524-1.338z" class="cls-1" data-name="Path 9" transform="translate(-.008)"/>
        <path id="Path_10" d="M238.15 43.909a11.713 11.713 0 0 1-.508-3.092c.046-1.062.046-2.031.046-2.861v-3.139a11.324 11.324 0 0 0-.831-4.708 5 5 0 0 0-2.815-2.585 14.511 14.511 0 0 0-5.446-.831 14.123 14.123 0 0 0-5.169.831 6.826 6.826 0 0 0-3.046 2.169 4.426 4.426 0 0 0-.969 2.677 1.823 1.823 0 0 0 .646 1.431 2.082 2.082 0 0 0 1.523.554 1.818 1.818 0 0 0 1.292-.323 10.492 10.492 0 0 0 1.015-1.477 4.535 4.535 0 0 1 1.708-1.661 6.425 6.425 0 0 1 3-.554q2.354 0 3.046.969a5.218 5.218 0 0 1 .831 3.046q-1.661.485-3.046.831c-.923.231-2.077.462-3.415.738s-2.169.462-2.492.508a6.8 6.8 0 0 0-3.738 2.031 5.192 5.192 0 0 0-1.385 3.692 5.491 5.491 0 0 0 .831 2.954 5.929 5.929 0 0 0 2.354 2.169 7.286 7.286 0 0 0 3.554.785 10.864 10.864 0 0 0 4.015-.738 16.682 16.682 0 0 0 3.692-2.215 10.948 10.948 0 0 0 1.708 2.215 2.136 2.136 0 0 0 1.615.738 2.533 2.533 0 0 0 1.708-.646 1.858 1.858 0 0 0 .738-1.477 6.465 6.465 0 0 0-.462-2.031zm-6.323-1.709a4.2 4.2 0 0 1-1.938 1.754 6.231 6.231 0 0 1-2.861.692 3.352 3.352 0 0 1-2.354-.831 2.634 2.634 0 0 1-.923-2.031 2.215 2.215 0 0 1 .738-1.8 4.239 4.239 0 0 1 1.615-.877q.831-.208 3.046-.692a27.771 27.771 0 0 0 3.369-.877v.738a7.162 7.162 0 0 1-.692 3.924z" class="cls-1" data-name="Path 10" transform="translate(-117.6 -14.363)"/>
        <path id="Path_11" d="M25.892 48.7a1.892 1.892 0 1 0 1.892 1.892 1.9 1.9 0 0 0-1.892-1.892z" class="cls-1" data-name="Path 11" transform="translate(-12.923 -26.215)"/>
    </g>
</svg>
